<svg width="401" height="483" viewBox="0 0 401 483" fill="none" xmlns="http://www.w3.org/2000/svg">
<path d="M191.182 407.3L200.411 410.977V409.194C196.399 408.846 192.654 407.808 191.182 407.3Z" fill="#00e5a0"/>
<path d="M191.182 306.595L200.411 310.272V308.49C196.399 308.141 192.654 307.103 191.182 306.595Z" fill="#00e5a0"/>
<path d="M191.182 205.891L200.411 209.567V207.785C196.458 207.442 192.763 206.429 191.248 205.913C191.226 205.906 191.204 205.898 191.182 205.891Z" fill="#00e5a0"/>
<path fill-rule="evenodd" clip-rule="evenodd" d="M4.15112 291.557L2.52073 201.377C2.52063 201.365 2.52074 201.353 2.52107 201.341L2.58115 204.666L4.15112 291.557ZM31.8729 238.531C32.1344 238.921 32.484 239.387 32.916 239.905L31.8729 238.531ZM42.5438 247.399L36.8987 245.151L32.916 239.905C34.7629 242.121 38.1167 245.283 42.5438 247.399ZM42.5438 247.399L45.6068 248.619C44.5372 248.276 43.5147 247.863 42.5438 247.399Z" fill="#00e5a0"/>
<path d="M76.1176 157.099L76.2329 157.251L81.4652 162.132L112.911 174.673C87.879 164.69 71.6045 149.985 64.1135 140.938L76.1176 157.099Z" fill="#00e5a0"/>
<path d="M209.641 407.3L200.411 410.977V409.194C204.424 408.846 208.169 407.808 209.641 407.3Z" fill="#00e5a0"/>
<path d="M209.641 306.595L200.411 310.272V308.49C204.424 308.141 208.169 307.103 209.641 306.595Z" fill="#00e5a0"/>
<path d="M209.641 205.891L200.411 209.567V207.785C204.365 207.442 208.059 206.429 209.575 205.913C209.597 205.906 209.619 205.898 209.641 205.891Z" fill="#00e5a0"/>
<path fill-rule="evenodd" clip-rule="evenodd" d="M396.672 291.557L398.302 201.377C398.302 201.365 398.302 201.353 398.302 201.341L398.242 204.666L396.672 291.557ZM368.95 238.531C368.688 238.921 368.339 239.387 367.907 239.905L368.95 238.531ZM358.279 247.399L363.924 245.151L367.907 239.905C366.06 242.121 362.706 245.283 358.279 247.399ZM358.279 247.399L355.216 248.619C356.286 248.276 357.308 247.863 358.279 247.399Z" fill="#00e5a0"/>
<path d="M324.705 157.099L324.656 157.165L324.59 157.251L319.358 162.132L287.911 174.673C312.944 164.69 329.218 149.985 336.709 140.938L324.705 157.099Z" fill="#00e5a0"/>
<path d="M103.425 441.474L191.086 480.363C191.214 480.407 191.36 480.458 191.523 480.516L191.534 480.52L191.539 480.521L191.543 480.523L191.734 480.59C193.507 481.216 196.893 482.412 200.411 482.718C203.929 482.412 207.316 481.216 209.089 480.59L209.28 480.523L209.284 480.521L209.289 480.52L209.3 480.516L209.33 480.505C209.481 480.452 209.617 480.404 209.737 480.363L297.397 441.474L325.411 430.365C353.811 418.821 381.672 389.758 392.052 376.67C394.641 373.182 395.374 368.264 395.426 366.106L395.428 365.972L395.976 333.443C396.003 331.964 395.236 331.815 394.653 331.977L394.326 332.106L297.397 372.388L209.737 407.266L200.411 410.977L191.086 407.266L103.425 372.388L6.49687 332.106L6.17005 331.977C5.5867 331.815 4.82037 331.964 4.84673 333.443L5.39457 365.972L5.39696 366.106C5.4487 368.264 6.18192 373.182 8.7708 376.67C19.151 389.758 47.0115 418.821 75.4115 430.365L103.425 441.474Z" fill="#00e5a0"/>
<path d="M200.411 310.272L45.6068 248.619C44.5372 248.276 43.5147 247.863 42.5438 247.399L36.8987 245.151L32.916 239.905C32.484 239.387 32.1344 238.921 31.8729 238.531L5.48243 203.775C4.49417 202.884 2.53035 201.814 2.58115 204.666L4.15112 291.557C4.19978 293.637 5.19364 298.152 8.77974 299.578L191.086 379.697C191.218 379.742 191.37 379.796 191.539 379.855L191.543 379.857C193.256 380.46 196.763 381.696 200.411 382.013C204.06 381.696 207.567 380.46 209.28 379.857L209.284 379.855L209.294 379.852C209.459 379.794 209.607 379.742 209.737 379.697L392.043 299.578C395.629 298.152 396.623 293.637 396.672 291.557L398.242 204.666C398.293 201.814 396.329 202.884 395.34 203.775L368.95 238.531C368.688 238.921 368.339 239.387 367.907 239.905L363.924 245.151L358.279 247.399C357.308 247.863 356.286 248.276 355.216 248.619L200.411 310.272Z" fill="#00e5a0"/>
<path d="M30.6859 202.558L30.6974 202.573C32.9902 205.659 39.3335 212.511 46.4669 215.36L191.011 278.954C191.07 278.975 191.152 279.013 191.239 279.055L191.25 279.06L191.254 279.062L191.551 279.192L191.552 279.193L191.557 279.195C193.27 279.798 196.763 280.991 200.411 281.308C204.06 280.991 207.553 279.798 209.266 279.195L209.271 279.193L209.272 279.192L209.568 279.063L209.569 279.062L209.573 279.06L209.583 279.055C209.671 279.013 209.752 278.975 209.812 278.954L354.356 215.36C361.489 212.511 367.833 205.659 370.125 202.573L370.137 202.558L394.373 166.345C397.805 161.722 398.901 157.432 399.088 153.798L399.114 152.304L400.822 59.4585C400.876 56.4776 399.031 57.4328 398.102 58.283L340.005 136.5C339.218 137.733 338.119 139.235 336.709 140.938L324.705 157.099L324.656 157.165L324.59 157.251L319.358 162.132L287.911 174.673L209.575 205.913L209.641 205.891L200.411 209.567L191.182 205.891L191.248 205.913L112.911 174.673L81.4652 162.132L76.2329 157.251C76.1931 157.199 76.1547 157.149 76.1176 157.099L64.1135 140.938C62.7037 139.235 61.605 137.733 60.8175 136.5L2.72134 58.283C1.79178 57.4328 -0.0536284 56.4776 0.00120366 59.4585L1.70907 152.304L1.73512 153.798C1.92139 157.432 3.0177 161.722 6.44988 166.345L30.6859 202.558Z" fill="#00e5a0"/>
<path d="M200.41 181H200.411V179C204.323 178.644 208.074 177.748 209.91 177.071L209.916 177.07L209.921 177.068L209.922 177.067L209.924 177.067L210.187 176.958L210.188 176.957C210.268 176.922 210.343 176.89 210.41 176.865L210.188 176.957L210.187 176.958C210.148 176.975 210.109 176.992 210.068 177.009L243.911 163.53C248.711 161.619 247.244 157.521 245.91 155.711C237.369 145.507 217.611 138 200.411 138H200.41H200.409C183.21 138 163.452 145.507 154.91 155.711C153.577 157.521 152.109 161.619 156.909 163.53L190.752 177.009C190.712 176.992 190.672 176.975 190.634 176.958L190.897 177.067L190.899 177.067L190.9 177.068L190.905 177.07L190.91 177.071C192.747 177.748 196.497 178.644 200.409 179V181H200.41Z" fill="#00e5a0"/>
<path d="M200.41 114C214.453 114 248.392 116.91 275.742 142.238C275.759 142.254 275.806 142.302 275.876 142.375C276.047 142.553 276.355 142.879 276.7 143.245C279.268 145.494 283.731 144.621 286.448 143.614L287.58 143.143L291.418 141.548L304.137 135.5L304.504 135.326C315.795 129.866 313.341 122.519 310.667 119.5C308.021 116.955 304.997 114.259 301.615 111.5C280.418 94.2148 245.128 74.4998 200.41 74.5C155.694 74.5002 120.403 94.215 99.2072 111.5C95.8245 114.259 92.8007 116.955 90.1549 119.5C87.4806 122.519 85.0264 129.866 96.318 135.326L96.6846 135.5L109.404 141.548L113.242 143.143L114.374 143.614C117.091 144.621 121.554 145.494 124.122 143.245C124.608 142.73 125.021 142.293 125.08 142.238C152.43 116.91 186.367 114 200.41 114Z" fill="#00e5a0"/>
<path d="M206.01 46.1742C233.49 46.9478 284.367 52.38 332.515 97.303C335.874 100.345 339.512 98.5706 340.91 97.303L363.91 67.7175C368.046 61.8915 365.634 57.1795 363.91 55.5518C329.252 26.063 273.006 3.04088 212.552 0.278301C208.522 0.0941487 204.474 1.97967e-05 200.411 0C135.411 -3.55315e-09 73.8801 24.0971 36.9112 55.5518C35.1882 57.1795 32.7759 61.8915 36.9112 67.7175L59.9112 97.303C61.31 98.5706 64.9473 100.345 68.3064 97.303C116.455 52.38 167.332 46.9478 194.812 46.1742L194.815 46.1742C196.806 46.1181 198.674 46.0655 200.41 46C202.146 46.0655 204.014 46.1181 206.006 46.1741L206.007 46.1742L206.01 46.1742Z" fill="#00e5a0"/>
</svg>
